<?xml version="1.0" encoding="UTF-8" standalone="no"?>
<!-- Created with Inkscape (http://www.inkscape.org/) -->

<svg
   xmlns:dc="http://purl.org/dc/elements/1.1/"
   xmlns:cc="http://creativecommons.org/ns#"
   xmlns:rdf="http://www.w3.org/1999/02/22-rdf-syntax-ns#"
   xmlns:svg="http://www.w3.org/2000/svg"
   xmlns="http://www.w3.org/2000/svg"
   xmlns:sodipodi="http://sodipodi.sourceforge.net/DTD/sodipodi-0.dtd"
   xmlns:inkscape="http://www.inkscape.org/namespaces/inkscape"
   width="210mm"
   height="297mm"
   viewBox="0 0 210 297"
   version="1.1"
   id="svg8"
   inkscape:version="0.92.1 r15371"
   sodipodi:docname="Icons.svg">
  <defs
     id="defs2">
    <inkscape:path-effect
       effect="lattice2"
       gridpoint0="30.334935,26.821561"
       gridpoint1="70.02472,25.351579"
       gridpoint2="27.528605,66.108527"
       gridpoint3="70.02472,66.108527"
       gridpoint4="40.090338,25.8193"
       gridpoint5="59.935231,25.017492"
       gridpoint6="37.350826,66.108527"
       gridpoint7="59.400692,66.108527"
       gridpoint8x9="48.977114,23.413874"
       gridpoint10x11="47.173046,66.04171"
       gridpoint12="28.597684,35.290251"
       gridpoint13="70.02472,34.28799"
       gridpoint14="27.528605,55.501681"
       gridpoint15="70.02472,55.501681"
       gridpoint16="38.219452,29.610773"
       gridpoint17="58.866153,30.947121"
       gridpoint18="34.277226,54.833507"
       gridpoint19="61.004308,52.96262"
       gridpoint20x21="47.84122,30.345764"
       gridpoint22x23="45.769881,57.238933"
       gridpoint24x26="27.528605,44.894837"
       gridpoint25x27="70.02472,44.894837"
       gridpoint28x30="34.744948,42.957134"
       gridpoint29x31="58.064344,43.491672"
       gridpoint32x33x34x35="47.440314,41.821238"
       id="path-effect138523"
       is_visible="true"
       horizontal_mirror="false"
       vertical_mirror="false"
       live_update="true" />
    <inkscape:path-effect
       effect="bend_path"
       id="path-effect138517"
       is_visible="true"
       bendpath="M 0,0 H 1"
       prop_scale="0.70770344"
       scale_y_rel="false"
       vertical="false"
       bendpath-nodetypes="cc" />
    <inkscape:path-effect
       effect="lattice2"
       gridpoint0="-13.89943,28.423464"
       gridpoint1="25.790355,26.953482"
       gridpoint2="-16.70576,67.710429"
       gridpoint3="25.790355,67.710429"
       gridpoint4="-4.1440257,27.421203"
       gridpoint5="15.700867,26.619395"
       gridpoint6="-6.8835387,67.710429"
       gridpoint7="15.166326,67.710429"
       gridpoint8x9="4.7427503,25.015777"
       gridpoint10x11="2.9386823,67.643614"
       gridpoint12="-15.636681,36.892154"
       gridpoint13="25.790355,35.889893"
       gridpoint14="-16.70576,57.103585"
       gridpoint15="25.790355,57.103585"
       gridpoint16="-6.0149127,31.212676"
       gridpoint17="14.631789,32.549024"
       gridpoint18="-9.9571387,56.435409"
       gridpoint19="16.769945,54.564523"
       gridpoint20x21="3.6068563,31.947667"
       gridpoint22x23="1.5355173,58.840837"
       gridpoint24x26="-16.70576,46.49674"
       gridpoint25x27="25.790355,46.49674"
       gridpoint28x30="-9.4894167,44.559037"
       gridpoint29x31="13.829979,45.093575"
       gridpoint32x33x34x35="3.2059503,43.423141"
       id="path-effect138523-8"
       is_visible="true"
       horizontal_mirror="false"
       vertical_mirror="false"
       live_update="true" />
  </defs>
  <sodipodi:namedview
     id="base"
     pagecolor="#ffffff"
     bordercolor="#666666"
     borderopacity="1.0"
     inkscape:pageopacity="0.0"
     inkscape:pageshadow="2"
     inkscape:zoom="2.8"
     inkscape:cx="141.76577"
     inkscape:cy="942.88026"
     inkscape:document-units="mm"
     inkscape:current-layer="layer3"
     showgrid="false"
     showguides="true"
     inkscape:guide-bbox="true"
     inkscape:window-width="1920"
     inkscape:window-height="1017"
     inkscape:window-x="-8"
     inkscape:window-y="-8"
     inkscape:window-maximized="1">
    <sodipodi:guide
       position="134.18154,275.16667"
       orientation="0,1"
       id="guide4485"
       inkscape:locked="false" />
    <sodipodi:guide
       position="-3.7797618,224.89584"
       orientation="0,1"
       id="guide4487"
       inkscape:locked="false" />
    <sodipodi:guide
       position="24.946428,181.0506"
       orientation="1,0"
       id="guide4489"
       inkscape:locked="false" />
    <sodipodi:guide
       position="75.21726,184.45239"
       orientation="1,0"
       id="guide4491"
       inkscape:locked="false" />
    <inkscape:grid
       type="xygrid"
       id="grid4516" />
  </sodipodi:namedview>
  <metadata
     id="metadata5">
    <rdf:RDF>
      <cc:Work
         rdf:about="">
        <dc:format>image/svg+xml</dc:format>
        <dc:type
           rdf:resource="http://purl.org/dc/dcmitype/StillImage" />
        <dc:title />
      </cc:Work>
    </rdf:RDF>
  </metadata>
  <g
     inkscape:label="Slash"
     inkscape:groupmode="layer"
     id="layer1"
     style="display:none">
    <g
       id="g138550">
      <path
         sodipodi:nodetypes="scscs"
         inkscape:connector-curvature="0"
         id="path4493"
         d="M 68.640635,53.417474 C 64.111576,65.612237 47.114651,72.197791 30.33509,69.459667 47.457336,67.991756 56.184901,60.37892 60.112758,52.089363 64.471793,42.889826 61.786963,27.589191 45.992832,23.115553 66.127622,23.534957 73.27483,40.939628 68.640635,53.417474 Z"
         style="opacity:1;fill:#000000;fill-opacity:1;stroke:none;stroke-width:0.99999994;stroke-linecap:round;stroke-linejoin:round;stroke-miterlimit:4;stroke-dasharray:none;stroke-opacity:1" />
      <path
         sodipodi:nodetypes="scscs"
         inkscape:connector-curvature="0"
         id="path4493-7"
         d="m 52.634452,50.040906 c -2.597918,6.559885 -8.029076,12.606465 -20.499361,14.940688 9.928937,-5.158657 13.269588,-9.754954 16.188703,-15.59708 3.239563,-6.483444 3.271361,-14.400756 -1.127004,-22.30683 8.113573,5.118722 8.201758,15.983733 5.437662,22.963222 z"
         style="opacity:1;fill:#000000;fill-opacity:1;stroke:none;stroke-width:0.99999994;stroke-linecap:round;stroke-linejoin:round;stroke-miterlimit:4;stroke-dasharray:none;stroke-opacity:1" />
    </g>
  </g>
  <g
     inkscape:groupmode="layer"
     id="layer2"
     inkscape:label="Pierce"
     style="display:none">
    <path
       style="opacity:1;fill:#000000;fill-opacity:1;stroke:none;stroke-width:3.77952766;stroke-linecap:round;stroke-linejoin:round;stroke-miterlimit:4;stroke-dasharray:none;stroke-opacity:1"
       d="m 101.01562,89.132812 v 3.230469 c 8.8254,12.786849 26.08831,37.373879 50.29493,69.783199 22.56102,30.20611 61.03906,71.74414 61.03906,71.74414 0,0 -12.83902,-62.95908 -32.92969,-91.45312 -15.38525,-21.82049 -28.4146,-42.979928 -34.61914,-53.304688 z m 176.01954,71.199218 c -15.11025,4.78381 -37.90587,12.01252 -49.07618,15.67969 -16.08322,5.28006 -17.14648,14.80664 -17.14648,14.80664 3.7829,12.55971 6.41967,23.3103 7.95312,29.98437 0,0 4.6597,-10.54265 20.875,-16.01367 7.76437,-2.6197 22.70128,-7.38099 37.39454,-12.03711 z m -119.71485,41.75195 c -3.4629,0.0113 -7.2047,0.44863 -11.01953,1.59375 -7.79146,2.33883 -26.81638,8.29554 -45.28516,14.09571 v 32.38867 c 20.22904,-6.39305 53.47376,-16.88048 64.21876,-20.05469 14.78039,-4.36634 32.82617,1.0332 32.82617,1.0332 -4.94903,-5.43259 -12.83023,-14.20502 -22.45117,-25.29296 0,0 -7.90039,-3.79765 -18.28907,-3.76368 z"
       transform="scale(0.26458333)"
       id="rect4549"
       inkscape:connector-curvature="0" />
  </g>
  <g
     inkscape:groupmode="layer"
     id="layer3"
     inkscape:label="Blunt"
     style="display:inline">
    <path
       style="opacity:1;fill:#000000;fill-opacity:1;stroke:none;stroke-width:3.77952766;stroke-linecap:round;stroke-linejoin:round;stroke-miterlimit:4;stroke-dasharray:none;stroke-opacity:1"
       d="M 165.31836 89.490234 L 158.17383 133.33594 L 112.88086 126.0625 L 136.27344 164.13281 L 96.789062 186.98633 L 139.76953 201.46875 L 124.56836 243.75781 L 167.0293 227.87695 L 183.22461 269.8125 L 205.29492 230.99805 L 245.30859 252.95703 L 236.66406 209.37109 L 281.77344 201.08203 L 246.45703 173.11914 L 275.55469 138.45703 L 230.0918 139.20117 L 229.5625 94.386719 L 195.22656 123.48828 L 165.31836 89.490234 z M 170.88672 112.24609 L 190.7832 136.10742 L 213.62695 115.68359 L 213.97852 147.13477 L 244.22266 146.61328 L 224.86523 170.93945 L 248.35938 190.56641 L 218.34961 196.38281 L 224.10156 226.97461 L 197.48242 211.56055 L 182.79883 238.80273 L 172.02539 209.37109 L 143.77734 220.51758 L 153.89062 190.83789 L 125.29688 180.67188 L 151.56445 164.63281 L 136.00195 137.91406 L 166.13477 143.01953 L 170.88672 112.24609 z "
       transform="scale(0.26458333)"
       id="path4556"
       inkscape:export-filename="C:\Users\xd\blunt.png"
       inkscape:export-xdpi="72"
       inkscape:export-ydpi="72" />
  </g>
  <g
     inkscape:groupmode="layer"
     id="layer4"
     inkscape:label="Str"
     style="display:none">
    <path
       style="opacity:1;fill:#000000;fill-opacity:1;stroke:none;stroke-width:0.99999994;stroke-linecap:round;stroke-linejoin:round;stroke-miterlimit:4;stroke-dasharray:none;stroke-opacity:1"
       d="m 70.031205,21.83333 c -1.66643,2.041997 -2.629841,3.611355 -6.161503,6.022534 l -1.240802,3.820378 5.468956,-1.745024 -1.95233,4.766542 3.518905,-1.559741 c 2.411839,-3.148782 3.624525,-4.326483 5.806116,-5.954192 V 21.83333 Z m -7.956643,6.799368 c -0.403911,0.166035 -0.765814,0.343229 -1.199041,0.501181 -8.004934,2.918593 -14.045711,2.438658 -20.614524,8.722087 -6.26678,5.994502 -6.764049,16.851763 -8.129021,21.582718 l 5.970898,-2.215074 -2.466419,5.092314 5.294301,-1.330413 -2.110278,5.331514 c 5.713027,-1.594133 14.471466,-1.616379 21.739905,-8.125221 7.673306,-6.871375 6.085812,-15.657883 8.160915,-22.490921 0.06921,-0.227721 0.156836,-0.418911 0.230089,-0.638627 l -5.548694,2.460349 2.139135,-5.233556 -5.194067,1.656176 z m -5.526672,5.782578 c -3.352491,2.112133 -13.918097,9.9299 -18.977332,18.441976 2.691944,-9.668338 12.458349,-16.514245 18.977332,-18.441976 z m 8.889146,5.490219 c -1.174688,9.967112 -9.77238,18.232198 -15.917841,21.138488 2.988226,-2.602065 12.226341,-11.950239 15.917841,-21.138488 z m -5.749165,0.717604 C 57.021719,46.637586 47.11653,56.2045 40.711301,59.065075 46.49702,54.457981 55.765268,44.685622 59.687871,40.623099 Z m -24.499445,19.249182 -3.760381,1.393437 c -1.88099,2.674789 -3.748651,3.233527 -6.228328,5.341387 v 5.497055 h 6.024816 c 1.991641,-2.034724 3.102641,-3.522288 5.772708,-5.175085 l 1.511897,-3.818852 -5.565401,1.399511 z"
       id="path4619"
       inkscape:connector-curvature="0"
       sodipodi:nodetypes="cccccccccccccccccccccccccccccccccccccccccc" />
  </g>
  <g
     inkscape:groupmode="layer"
     id="layer5"
     inkscape:label="Int"
     style="display:none">
    <g
       id="g138554"
       inkscape:export-filename="C:\Users\xd\int.png"
       inkscape:export-xdpi="72"
       inkscape:export-ydpi="72">
      <path
         sodipodi:nodetypes="ssscccccsssssscscscscczszccssccscccsssssccccss"
         inkscape:connector-curvature="0"
         id="path4673"
         transform="scale(0.26458333)"
         d="m 189.28516,82.519531 c -52.46706,-4e-6 -95.000008,39.565329 -95.000004,74.865239 0,35.2999 42.532954,52.96679 95.000004,52.96679 13.24077,0 25.84539,-1.12912 37.29687,-3.3789 0.4098,-0.63675 0.73115,-1.13275 1.14453,-1.77539 2.06997,-3.21802 4.14087,-6.43532 5.73047,-8.90235 0.7948,-1.23351 1.46698,-2.2737 1.96485,-3.04101 0.49786,-0.76732 0.45381,-0.77554 1.04101,-1.57618 9.22569,-12.57854 13.61052,-26.77102 12.16211,-39.42187 -1.44841,-12.65085 -8.34755,-23.78221 -22.72461,-31.55664 -11.57284,-6.25805 -29.4447,-7.74903 -46.19336,-4.50781 -16.74866,3.24121 -31.99543,11.11278 -39.17187,21.49414 -5.88683,8.51583 -5.65014,17.24115 -1.29297,24.89062 4.35717,7.64947 13.08028,14.04283 24.50976,16.64453 9.53871,2.1713 20.03547,2.85395 28.70703,1.38086 8.67157,-1.47308 15.20252,-4.78966 18.87696,-10.67383 1.95721,-3.13423 3.87895,-9.13849 3.4414,-14.27734 -0.43754,-5.13885 -2.36021,-9.05943 -8.35742,-11.49219 -4.03071,-1.63505 -12.4441,-2.96276 -19.55078,-2.24609 -7.10668,0.71668 -12.12367,2.94951 -13.89062,6.92383 -0.93521,2.10352 -0.75113,3.01904 -0.54688,3.52929 0.20425,0.51026 0.62048,1.01085 1.81055,1.64844 2.38011,1.27521 7.50943,3.2034 11.27929,3.66894 3.76986,0.46555 8.05308,0.99893 7.81692,4.25706 -0.21797,3.00695 -4.65648,3.87511 -9.02385,4.13543 -4.36736,0.26031 -10.75683,-0.0106 -16.44736,-3.05948 -2.84527,-1.52441 -5.59801,-3.89192 -6.91016,-7.16992 -1.31214,-3.278 -0.98376,-7.06124 0.6875,-10.82031 3.94674,-8.87719 14.26696,-12.65378 23.82031,-13.61719 9.55336,-0.96341 19.13282,0.3513 26.09571,3.17578 10.19146,4.13416 14.69698,12.59739 15.35156,20.28516 0.65457,7.68777 -1.66887,14.94546 -4.88867,20.10156 -5.7123,9.14754 -16.15128,14.11563 -27.23242,15.99805 -11.08115,1.88241 -23.12745,0.99059 -34.12891,-1.51367 -14.68004,-3.34163 -26.30699,-11.63585 -32.31836,-22.18946 -6.01138,-10.5536 -6.17077,-23.54098 1.76953,-35.02734 9.58413,-13.86429 27.74452,-22.64796 46.95313,-26.36523 9.6043,-1.85863 19.57178,-2.4764 29.05859,-1.58789 9.4868,0.88851 18.49403,3.27407 26.19336,7.4375 17.4275,9.42396 26.62845,24.00587 28.40039,39.48242 1.77193,15.47655 -3.5015,31.8331 -14.00391,46.15234 0.44693,-0.60937 -0.21511,0.33683 -0.70117,1.08594 -0.48605,0.74911 -1.16106,1.78831 -1.95312,3.01758 -0.19772,0.30684 -0.5028,0.78212 -0.71485,1.11133 24.73133,-8.34616 40.93945,-23.40504 40.93946,-45.1875 10e-6,-50.95727 -28.39082,-74.865235 -95,-74.865239 z"
         style="opacity:1;fill:#000000;fill-opacity:1;stroke:none;stroke-width:3.77952766;stroke-linecap:round;stroke-linejoin:round;stroke-miterlimit:4;stroke-dasharray:none;stroke-opacity:1" />
      <path
         sodipodi:nodetypes="ccsccc"
         inkscape:connector-curvature="0"
         id="path4676"
         transform="scale(0.26458333)"
         d="m 266.54743,200.38812 c -19.28378,12.43285 -47.35292,17.8922 -78.09486,18.06361 0,0 14.73409,8.17868 19.93108,13.53153 10.39547,10.70724 7.29242,10.22322 11.0452,40.53641 h 28.60156 c 0.59973,-38.91527 12.0308,-54.13592 18.51702,-72.13155 z"
         style="fill:#000000;stroke:none;stroke-width:0.99999994px;stroke-linecap:butt;stroke-linejoin:miter;stroke-opacity:1" />
    </g>
  </g>
  <g
     inkscape:groupmode="layer"
     id="layer6"
     inkscape:label="Def"
     style="display:none">
    <g
       id="g138558">
      <path
         sodipodi:nodetypes="cccccccscccccccccsssscccsccccccccccccscccc"
         inkscape:original-d="m 47.903072,23.681144 c -7.624188,-0.543877 -13.641988,3.21126 -16.816543,9.469707 0.992986,1.343048 6.638576,4.786532 8.248592,4.818311 1.649211,0.03255 7.744396,-3.509905 8.41344,-4.744932 0.651388,-1.202431 0.834072,-8.014412 0.154511,-9.543086 z m 2.279449,0.03927 c -0.723675,1.584365 -0.766842,8.279466 -0.01497,9.501746 0.779714,1.267573 6.66656,4.880845 8.315772,4.913394 1.568185,0.03095 7.151915,-3.168549 8.272362,-4.544941 -3.626618,-5.752602 -9.787604,-9.421799 -16.573159,-9.870199 z M 30.061269,34.853071 c -1.660007,3.088063 -2.530084,6.538907 -2.532664,10.044867 0.0059,3.207861 0.737997,6.372759 2.141474,9.257315 1.654776,0.02702 7.740261,-3.510341 8.408787,-4.744413 0.669046,-1.235027 0.843976,-8.390752 0.09767,-9.658326 -0.717632,-1.218866 -6.309241,-4.66661 -8.115268,-4.899443 z m 18.871715,0.286806 c -1.548985,0.03427 -7.610761,3.509386 -8.41344,4.744413 -0.802677,1.235025 -0.877382,8.390752 -0.09767,9.658323 0.779717,1.267574 6.666561,4.881364 8.315772,4.913913 1.649212,0.03255 7.743881,-3.509388 8.412925,-4.744413 0.669044,-1.235027 0.843973,-8.390752 0.09767,-9.658326 -0.746307,-1.267571 -6.766271,-4.948182 -8.315256,-4.91391 z m 18.820558,0.209806 c -1.932572,0.401728 -7.331384,3.540737 -8.085812,4.701522 -0.802679,1.235025 -0.877384,8.390752 -0.09767,9.658323 0.747583,1.215343 6.18703,4.585124 8.087879,4.889625 1.548384,-2.999806 2.359712,-6.325378 2.366779,-9.701215 -0.0016,-3.31638 -0.779346,-6.586361 -2.271178,-9.548255 z M 39.129965,51.459811 c -1.5246,0.03373 -7.417331,3.3993 -8.367963,4.682918 3.61021,5.771676 9.767395,9.46399 16.559196,9.930143 0.0081,-0.01339 0.01937,-0.02793 0.02635,-0.04082 0.669042,-1.235027 0.843974,-8.390752 0.09767,-9.658326 -0.746308,-1.267571 -6.766272,-4.948182 -8.315256,-4.91391 z m 19.147668,0.166915 c -1.548984,0.03427 -7.61076,3.509385 -8.41344,4.744413 -0.802677,1.235024 -0.877382,8.390752 -0.09767,9.658323 0.01535,0.02495 0.03607,0.05236 0.0553,0.07906 6.797559,-0.339526 13.021088,-3.914825 16.738512,-9.61595 -0.859739,-1.308245 -6.752089,-4.899718 -8.282699,-4.865851 z"
         inkscape:path-effect="#path-effect138523"
         inkscape:connector-curvature="0"
         id="path4509"
         d="m 50.817445,27.716145 c -3.228047,0.119349 -6.998085,0.228854 -9.935363,1.152156 -3.217422,1.011362 -5.814623,3.014445 -7.701827,6.306451 0.307804,0.438981 1.240872,0.664906 2.063769,0.591967 0.756661,-0.06707 1.730759,-0.384858 2.226959,-0.702524 0.566548,-0.362701 2.34488,-1.822529 4.382805,-2.888245 2.037925,-1.065715 4.255947,-1.738773 4.888949,-2.011839 0.616296,-0.265858 1.888909,-0.984118 2.839579,-1.460683 0.980606,-0.491572 1.45528,-0.801927 1.235129,-0.987283 z m 2.04242,-0.116348 c 0.10294,-0.04328 -1.702849,0.844136 -2.104197,1.058543 -0.903821,0.482838 -1.779673,1.128152 -1.704447,1.430307 0.05791,0.23265 1.101516,0.856238 2.660617,1.853371 1.483285,0.948645 3.659443,2.372604 4.639362,2.696145 0.891501,0.294349 3.478222,0.502065 5.608508,0.471441 2.314914,-0.03328 4.044145,-0.370199 4.747427,-0.862878 -1.812156,-3.053812 -3.871324,-5.082054 -6.094403,-5.992462 -2.201436,-0.901546 -4.776688,-0.811389 -7.752863,-0.654467 9.8e-5,2.22e-4 9.3e-5,2.23e-4 9.3e-5,2.23e-4 m -20.737689,9.400492 c -1.652541,3.274626 -2.347469,6.986412 -2.658623,10.043981 -0.279207,2.780505 -0.3042,5.520488 0.226667,7.763331 0.486938,-0.234935 1.341278,-1.535923 2.257649,-3.397023 0.807931,-1.640863 1.857682,-4.045724 2.034697,-4.742318 0.216713,-0.852813 0.481816,-3.372266 0.950608,-5.507575 0.468793,-2.135309 1.108345,-3.837657 1.092939,-4.164509 -0.01629,-0.345637 -0.584716,-0.388394 -1.354957,-0.330593 -0.547891,0.04111 -2.096871,0.167925 -2.548981,0.334706 0,0 10e-7,0 10e-7,0 z m 14.764958,-6.045351 c -0.830244,0.0337 -2.964571,0.558083 -5.063585,1.676356 -2.14454,1.142527 -3.696813,2.601738 -4.285085,3.365204 -0.555893,0.721445 -1.392845,2.4488 -1.880024,4.702435 -0.475817,2.201075 -0.507314,4.527881 -0.240943,5.223558 0.232237,0.606527 1.369176,1.612529 3.053448,2.77196 1.643432,1.131317 3.795143,2.36309 4.704192,2.360543 0.838603,-0.0023 2.921839,-1.306184 5.077899,-2.504775 2.111832,-1.174003 4.515412,-2.345927 4.906425,-2.925459 0.4161,-0.616716 0.7212,-3.170132 0.975518,-5.269183 0.261859,-2.161291 0.49831,-4.076112 0.196128,-4.693222 -0.331457,-0.676891 -2.125736,-2.248075 -3.680196,-3.249763 -1.631456,-1.051303 -2.970592,-1.489847 -3.763776,-1.457654 0,0 -10e-7,0 -10e-7,0 z m 20.811125,5.133082 c -0.628001,-0.06282 -3.499161,0.0023 -5.295686,0.04732 -2.219136,0.05555 -4.311874,0.177914 -4.957277,0.523677 -0.642948,0.344448 -1.308474,2.015913 -1.525131,4.197376 -0.214676,2.161532 0.04664,4.648904 0.636547,5.561213 0.560355,0.86661 2.792767,2.738586 5.190312,4.485766 2.377295,1.732423 4.714535,3.208423 5.766346,3.59859 1.714399,-2.595704 2.504091,-5.428522 2.511255,-8.692113 -0.0016,-3.212638 -0.792382,-6.546555 -2.326368,-9.721825 0,0 2e-6,0 2e-6,0 z M 34.600689,48.723709 c -0.533568,0.31238 -1.48381,1.954676 -2.389109,3.706984 -0.719467,1.392611 -1.872532,3.661998 -2.009626,4.040521 0.957127,2.450718 2.859941,4.84736 5.617206,6.637235 2.771032,1.798812 5.995052,2.697681 9.47683,2.902435 0.0043,-0.01176 0.01136,-0.0246 0.01465,-0.03599 0.157746,-0.561441 -0.282549,-2.534213 -1.009423,-5.393755 -0.6798,-2.674355 -1.526907,-5.887094 -2.031176,-6.70208 -0.53884,-0.870853 -2.608809,-2.610443 -4.234786,-3.736813 -1.712172,-1.18608 -2.941203,-1.707373 -3.434572,-1.418526 0,0 2e-6,-7e-6 2e-6,-7e-6 z m 20.237607,-0.396767 c -1.143174,-0.207611 -3.616221,0.406484 -5.830322,1.647598 -2.204591,1.235784 -3.840127,2.903995 -4.13876,3.825653 -0.306478,0.94587 0.07701,3.905137 0.785181,6.71914 0.714529,2.839284 1.557155,4.897643 2.112971,5.451711 0.02267,0.02262 0.05133,0.04712 0.07833,0.071 3.557692,-0.153169 6.802009,-1.03441 10.116746,-2.92977 3.121248,-1.784723 6.27552,-4.474281 8.310349,-6.934724 -0.53345,-0.779876 -2.615132,-2.451494 -5.158705,-4.228161 -2.507294,-1.751328 -5.210499,-3.428987 -6.275789,-3.622451 0,0 -4e-6,5e-6 -4e-6,5e-6 z"
         style="opacity:1;fill:#000000;fill-opacity:1;stroke:none;stroke-width:3;stroke-linecap:round;stroke-linejoin:round;stroke-miterlimit:4;stroke-dasharray:none;stroke-opacity:1" />
      <path
         sodipodi:nodetypes="cssccccccccscsccccccccscccccccccssscccccsscc"
         inkscape:connector-curvature="0"
         id="path4509-5"
         d="m 58.199219,24.552474 c -1.7449,-0.08145 -3.714943,0.01466 -6.072266,0.126953 -4.689875,0.223403 -8.012897,0.847285 -11.683854,2.001823 -3.993049,1.255838 -7.359257,3.37196 -10.246094,8.398567 -0.01014,0.01803 -0.01991,0.03626 -0.0293,0.05469 -2.597658,4.988915 -3.964378,8.402169 -4.329947,11.996354 v 0.002 c -0.327606,3.264224 -0.363052,6.611786 0.589844,10.337891 0.0059,0.02359 0.01245,0.04704 0.01953,0.07031 l 0.292969,0.949218 c 0.01041,0.03558 0.02214,0.07076 0.03516,0.105469 1.216981,3.117731 3.067003,6.08728 6.46302,8.292969 3.417433,2.219599 7.466288,3.320326 13.121094,3.36914 5.662772,0.04889 9.742727,-1.047578 13.71875,-3.322265 3.748644,-2.144605 7.472245,-5.329706 10.617187,-9.238281 0.0254,-0.03156 0.04951,-0.06414 0.07227,-0.09766 2.792342,-4.108505 3.825281,-7.755332 3.833984,-11.722656 2e-6,-0.0013 2e-6,-0.0026 0,-0.0039 -0.0019,-3.914708 -0.962641,-7.940895 -2.804687,-11.755859 -0.0093,-0.01974 -0.01911,-0.03928 -0.0293,-0.05859 l -0.566406,-1.050782 c -0.0076,-0.01445 -0.01539,-0.02878 -0.02344,-0.04297 -2.71756,-4.682828 -5.289792,-6.789159 -8.25,-8.002083 -1.462595,-0.599289 -2.983616,-0.32884 -4.728515,-0.410287 z m -0.195313,1.955338 c 1.529872,0.06843 2.734799,0.272748 3.785156,0.703126 2.113418,0.865958 4.240684,2.863321 6.789063,7.251953 0.002,0.0035 0.0038,0.0043 0.0059,0.0078 l 0.515625,0.962891 c 1.656409,3.434586 2.500276,7.019578 2.501953,10.439453 -0.0082,3.468868 -0.781159,6.28607 -3.289062,9.992187 -2.907842,3.600406 -6.36423,6.544319 -9.724609,8.466797 -3.591565,2.054739 -6.919789,2.971394 -12.203125,2.925781 -5.291306,-0.04568 -8.60285,-0.997428 -11.511719,-2.886718 -2.892591,-1.878718 -4.851911,-4.376556 -5.822266,-6.851563 L 28.802775,56.714832 C 27.963554,53.424581 27.98382,50.517413 28.29301,47.435535 v -0.002 c 0.344354,-3.384456 1.096901,-6.85716 3.470703,-11.423958 2.621185,-4.549063 5.179059,-6.474178 8.521484,-7.525391 3.034885,-0.954489 7.260651,-1.640089 11.984375,-1.865104 2.349476,-0.111917 4.204503,-0.179761 5.734375,-0.111329 z"
         style="color:#000000;font-style:normal;font-variant:normal;font-weight:normal;font-stretch:normal;font-size:medium;line-height:normal;font-family:sans-serif;font-variant-ligatures:normal;font-variant-position:normal;font-variant-caps:normal;font-variant-numeric:normal;font-variant-alternates:normal;font-feature-settings:normal;text-indent:0;text-align:start;text-decoration:none;text-decoration-line:none;text-decoration-style:solid;text-decoration-color:#000000;letter-spacing:normal;word-spacing:normal;text-transform:none;writing-mode:lr-tb;direction:ltr;text-orientation:mixed;dominant-baseline:auto;baseline-shift:baseline;text-anchor:start;white-space:normal;shape-padding:0;clip-rule:nonzero;display:inline;overflow:visible;visibility:visible;opacity:1;isolation:auto;mix-blend-mode:normal;color-interpolation:sRGB;color-interpolation-filters:linearRGB;solid-color:#000000;solid-opacity:1;vector-effect:none;fill:#000000;fill-opacity:1;fill-rule:nonzero;stroke:none;stroke-width:3;stroke-linecap:round;stroke-linejoin:round;stroke-miterlimit:4;stroke-dasharray:none;stroke-dashoffset:0;stroke-opacity:1;color-rendering:auto;image-rendering:auto;shape-rendering:auto;text-rendering:auto;enable-background:accumulate" />
    </g>
  </g>
</svg>
